<?xml version="1.0" encoding="UTF-8"?>
<!DOCTYPE svg PUBLIC "-//W3C//DTD SVG 1.1//EN" "http://www.w3.org/Graphics/SVG/1.1/DTD/svg11.dtd">
<svg xmlns="http://www.w3.org/2000/svg"
    xmlns:xlink="http://www.w3.org/1999/xlink" version="1.1" width="650px" height="255px" style="background-color: #ffffff;">
    <defs/>
    <g transform="translate(10,10)">
        <path d="M 61 191 L 147.63 191" fill="none" stroke="#000000" stroke-miterlimit="10"/>
        <path d="M 152.88 191 L 145.88 194.5 L 147.63 191 L 145.88 187.5 Z" fill="#000000" stroke="#000000" stroke-miterlimit="10"/>
        <ellipse cx="31" cy="191" rx="30" ry="30" fill="#ffffff" stroke="#000000" stroke-width="2"/>
        <path d="M 254 191 L 320.63 191" fill="none" stroke="#000000" stroke-miterlimit="10"/>
        <path d="M 325.88 191 L 318.88 194.5 L 320.63 191 L 318.88 187.5 Z" fill="#000000" stroke="#000000" stroke-miterlimit="10"/>
        <path d="M 204 141 L 204 121 L 527 121 L 527 90.37" fill="none" stroke="#000000" stroke-miterlimit="10"/>
        <path d="M 527 85.12 L 530.5 92.12 L 527 90.37 L 523.5 92.12 Z" fill="#000000" stroke="#000000" stroke-miterlimit="10"/>
        <path d="M 204 141 L 254 191 L 204 241 L 154 191 Z" fill="#ffffff" stroke="#000000" stroke-width="2" stroke-miterlimit="10"/>
        <path d="M 550 156 L 550 87.37" fill="none" stroke="#000000" stroke-miterlimit="10"/>
        <path d="M 550 82.12 L 553.5 89.12 L 550 87.37 L 546.5 89.12 Z" fill="#000000" stroke="#000000" stroke-miterlimit="10"/>
        <rect x="500" y="156" width="100" height="70" rx="7" ry="7" fill="#ffffff" stroke="#000000" stroke-width="2"/>
        <path d="M 427 191 L 493.63 191" fill="none" stroke="#000000" stroke-miterlimit="10"/>
        <path d="M 498.88 191 L 491.88 194.5 L 493.63 191 L 491.88 187.5 Z" fill="#000000" stroke="#000000" stroke-miterlimit="10"/>
        <path d="M 377 141 L 377 107.37" fill="none" stroke="#000000" stroke-miterlimit="10"/>
        <path d="M 377 102.12 L 380.5 109.12 L 377 107.37 L 373.5 109.12 Z" fill="#000000" stroke="#000000" stroke-miterlimit="10"/>
        <path d="M 377 141 L 427 191 L 377 241 L 327 191 Z" fill="#ffffff" stroke="#000000" stroke-width="2" stroke-miterlimit="10"/>
        <path d="M 530.61 21 L 569.39 21 C 586.29 21 600 34.43 600 51 C 600 67.57 586.29 81 569.39 81 L 530.61 81 C 513.71 81 500 67.57 500 51 C 500 34.43 513.71 21 530.61 21 Z" fill="#ffffff" stroke="#000000" stroke-width="2" stroke-miterlimit="10"/>
        <path d="M 327 51 L 171 51 L 171 164.63" fill="none" stroke="#000000" stroke-miterlimit="10"/>
        <path d="M 171 169.88 L 167.5 162.88 L 171 164.63 L 174.5 162.88 Z" fill="#000000" stroke="#000000" stroke-miterlimit="10"/>
        <path d="M 377 1 L 427 51 L 377 101 L 327 51 Z" fill="#ffffff" stroke="#000000" stroke-width="2" stroke-miterlimit="10"/>
    </g>
</svg>